<svg xmlns:xlink="http://www.w3.org/1999/xlink" xmlns="http://www.w3.org/2000/svg" class="icon select" focusable="false" data-di-res-id="8cbbcc97-98963165" data-di-rand="1710082376685" width="96"  height="96" ><defs><symbol viewBox="0 0 96 96" id="wishlist-select-bold" xmlns="http://www.w3.org/2000/svg"><path d="M48.002 84.009l-.298-.035c-.796-.096-.796-.096-5.698-3.986a514.58 514.58 0 01-10.291-8.386c-10.447-8.75-17.384-15.346-20.618-19.603-.495-.651-1.886-2.62-1.886-2.62l-.085-.129A24.366 24.366 0 015.5 36.448c0-13.486 10.991-24.457 24.5-24.457 6.87 0 13.392 2.896 18 7.875a24.56 24.56 0 0118-7.875c13.51 0 24.5 10.971 24.5 24.457 0 4.53-1.253 8.957-3.625 12.802l-.085.129s-1.391 1.969-1.886 2.62c-3.234 4.257-10.172 10.853-20.618 19.603a514.58 514.58 0 01-10.291 8.386c-4.901 3.89-4.901 3.89-5.696 3.985l-.297.036z"></path></symbol></defs>
								<use xlink:href="#wishlist-select-bold" href="#wishlist-select-bold" fill="#2189FF"></use>
							</svg>