<svg xmlns:xlink="http://www.w3.org/1999/xlink" xmlns="http://www.w3.org/2000/svg" class="icon" focusable="false" aria-hidden="true" data-di-res-id="8b371593-8fb74df4" data-di-rand="1710082376664" width="96"  height="96" ><defs><symbol viewBox="0 0 96 96" id="user-bold" xmlns="http://www.w3.org/2000/svg"><path d="M48 50c17.346 0 32 14.221 32 31.054V89c0 2.757-2.243 5-5 5H21c-2.757 0-5-2.243-5-5v-7.946C16 64.221 30.654 50 48 50zm0 8c-12.785 0-24 10.773-24 23.054V86h48v-4.946C72 68.773 60.785 58 48 58zm-.002-56c12.133 0 22.003 9.87 22.003 22.001C70 36.131 60.13 46 47.998 46c-12.13 0-21.997-9.869-21.997-21.999C26 11.87 35.867 2 47.998 2zm0 8c-7.718 0-13.997 6.281-13.997 14.001C34 31.72 40.28 38 47.998 38 55.718 38 62 31.72 62 24.001 62 16.281 55.719 10 47.998 10z"></path></symbol></defs>
								<use xlink:href="#user-bold" href="#user-bold"></use>
							</svg>